<svg id="visual" viewBox="0 0 900 600" width="900" height="600" xmlns="http://www.w3.org/2000/svg" xmlns:xlink="http://www.w3.org/1999/xlink" version="1.1"><rect x="0" y="0" width="900" height="600" fill="#eed5b1"></rect><defs><linearGradient id="grad1_0" x1="33.3%" y1="0%" x2="100%" y2="100%"><stop offset="20%" stop-color="#009473" stop-opacity="1"></stop><stop offset="80%" stop-color="#009473" stop-opacity="1"></stop></linearGradient></defs><defs><linearGradient id="grad1_1" x1="33.3%" y1="0%" x2="100%" y2="100%"><stop offset="20%" stop-color="#009473" stop-opacity="1"></stop><stop offset="80%" stop-color="#4a9e71" stop-opacity="1"></stop></linearGradient></defs><defs><linearGradient id="grad1_2" x1="33.3%" y1="0%" x2="100%" y2="100%"><stop offset="20%" stop-color="#6fa773" stop-opacity="1"></stop><stop offset="80%" stop-color="#4a9e71" stop-opacity="1"></stop></linearGradient></defs><defs><linearGradient id="grad1_3" x1="33.3%" y1="0%" x2="100%" y2="100%"><stop offset="20%" stop-color="#6fa773" stop-opacity="1"></stop><stop offset="80%" stop-color="#8eb078" stop-opacity="1"></stop></linearGradient></defs><defs><linearGradient id="grad1_4" x1="33.3%" y1="0%" x2="100%" y2="100%"><stop offset="20%" stop-color="#aab981" stop-opacity="1"></stop><stop offset="80%" stop-color="#8eb078" stop-opacity="1"></stop></linearGradient></defs><defs><linearGradient id="grad1_5" x1="33.3%" y1="0%" x2="100%" y2="100%"><stop offset="20%" stop-color="#aab981" stop-opacity="1"></stop><stop offset="80%" stop-color="#c3c28e" stop-opacity="1"></stop></linearGradient></defs><defs><linearGradient id="grad1_6" x1="33.3%" y1="0%" x2="100%" y2="100%"><stop offset="20%" stop-color="#dacb9e" stop-opacity="1"></stop><stop offset="80%" stop-color="#c3c28e" stop-opacity="1"></stop></linearGradient></defs><defs><linearGradient id="grad1_7" x1="33.3%" y1="0%" x2="100%" y2="100%"><stop offset="20%" stop-color="#dacb9e" stop-opacity="1"></stop><stop offset="80%" stop-color="#eed5b1" stop-opacity="1"></stop></linearGradient></defs><defs><linearGradient id="grad2_0" x1="0%" y1="0%" x2="66.7%" y2="100%"><stop offset="20%" stop-color="#009473" stop-opacity="1"></stop><stop offset="80%" stop-color="#009473" stop-opacity="1"></stop></linearGradient></defs><defs><linearGradient id="grad2_1" x1="0%" y1="0%" x2="66.7%" y2="100%"><stop offset="20%" stop-color="#4a9e71" stop-opacity="1"></stop><stop offset="80%" stop-color="#009473" stop-opacity="1"></stop></linearGradient></defs><defs><linearGradient id="grad2_2" x1="0%" y1="0%" x2="66.7%" y2="100%"><stop offset="20%" stop-color="#4a9e71" stop-opacity="1"></stop><stop offset="80%" stop-color="#6fa773" stop-opacity="1"></stop></linearGradient></defs><defs><linearGradient id="grad2_3" x1="0%" y1="0%" x2="66.7%" y2="100%"><stop offset="20%" stop-color="#8eb078" stop-opacity="1"></stop><stop offset="80%" stop-color="#6fa773" stop-opacity="1"></stop></linearGradient></defs><defs><linearGradient id="grad2_4" x1="0%" y1="0%" x2="66.7%" y2="100%"><stop offset="20%" stop-color="#8eb078" stop-opacity="1"></stop><stop offset="80%" stop-color="#aab981" stop-opacity="1"></stop></linearGradient></defs><defs><linearGradient id="grad2_5" x1="0%" y1="0%" x2="66.7%" y2="100%"><stop offset="20%" stop-color="#c3c28e" stop-opacity="1"></stop><stop offset="80%" stop-color="#aab981" stop-opacity="1"></stop></linearGradient></defs><defs><linearGradient id="grad2_6" x1="0%" y1="0%" x2="66.7%" y2="100%"><stop offset="20%" stop-color="#c3c28e" stop-opacity="1"></stop><stop offset="80%" stop-color="#dacb9e" stop-opacity="1"></stop></linearGradient></defs><defs><linearGradient id="grad2_7" x1="0%" y1="0%" x2="66.7%" y2="100%"><stop offset="20%" stop-color="#eed5b1" stop-opacity="1"></stop><stop offset="80%" stop-color="#dacb9e" stop-opacity="1"></stop></linearGradient></defs><g transform="translate(900, 0)"><path d="M0 540.8C-26.6 431.6 -53.2 322.4 -129.7 313.2C-206.3 304 -332.8 394.9 -382.4 382.4C-432.1 370 -404.9 254.3 -418.5 173.4C-432.1 92.4 -486.5 46.2 -540.8 0L0 0Z" fill="#e4d0a7"></path><path d="M0 473.2C-23.3 377.7 -46.5 282.1 -113.5 274C-180.5 266 -291.2 345.5 -334.6 334.6C-378.1 323.8 -354.3 222.5 -366.2 151.7C-378.1 80.9 -425.7 40.4 -473.2 0L0 0Z" fill="#cfc696"></path><path d="M0 405.6C-19.9 323.7 -39.9 241.8 -97.3 234.9C-154.7 228 -249.6 296.1 -286.8 286.8C-324.1 277.5 -303.7 190.7 -313.9 130C-324.1 69.3 -364.9 34.7 -405.6 0L0 0Z" fill="#b7bd87"></path><path d="M0 338C-16.6 269.8 -33.2 201.5 -81.1 195.7C-128.9 190 -208 246.8 -239 239C-270.1 231.3 -253.1 158.9 -261.6 108.3C-270.1 57.8 -304 28.9 -338 0L0 0Z" fill="#9cb57c"></path><path d="M0 270.4C-13.3 215.8 -26.6 161.2 -64.9 156.6C-103.1 152 -166.4 197.4 -191.2 191.2C-216 185 -202.5 127.2 -209.3 86.7C-216.1 46.2 -243.2 23.1 -270.4 0L0 0Z" fill="#7fac75"></path><path d="M0 202.8C-10 161.9 -19.9 120.9 -48.6 117.4C-77.4 114 -124.8 148.1 -143.4 143.4C-162 138.8 -151.8 95.4 -156.9 65C-162 34.7 -182.4 17.3 -202.8 0L0 0Z" fill="#5ea371"></path><path d="M0 135.2C-6.6 107.9 -13.3 80.6 -32.4 78.3C-51.6 76 -83.2 98.7 -95.6 95.6C-108 92.5 -101.2 63.6 -104.6 43.3C-108 23.1 -121.6 11.6 -135.2 0L0 0Z" fill="#329972"></path><path d="M0 67.6C-3.3 54 -6.6 40.3 -16.2 39.1C-25.8 38 -41.6 49.4 -47.8 47.8C-54 46.3 -50.6 31.8 -52.3 21.7C-54 11.6 -60.8 5.8 -67.6 0L0 0Z" fill="#009473"></path></g><g transform="translate(0, 600)"><path d="M0 -540.8C72 -520.8 143.9 -500.8 189.8 -458.2C235.7 -415.7 255.5 -350.7 310.4 -310.4C365.3 -270.1 455.4 -254.6 499.7 -207C543.9 -159.4 542.4 -79.7 540.8 0L0 0Z" fill="#e4d0a7"></path><path d="M0 -473.2C63 -455.7 125.9 -438.2 166.1 -401C206.2 -363.8 223.6 -306.9 271.6 -271.6C319.7 -236.4 398.5 -222.8 437.2 -181.1C475.9 -139.4 474.6 -69.7 473.2 0L0 0Z" fill="#cfc696"></path><path d="M0 -405.6C54 -390.6 107.9 -375.6 142.4 -343.7C176.8 -311.8 191.6 -263 232.8 -232.8C274 -202.6 341.6 -190.9 374.7 -155.2C407.9 -119.5 406.8 -59.8 405.6 0L0 0Z" fill="#b7bd87"></path><path d="M0 -338C45 -325.5 90 -313 118.6 -286.4C147.3 -259.8 159.7 -219.2 194 -194C228.3 -168.8 284.6 -159.1 312.3 -129.4C340 -99.6 339 -49.8 338 0L0 0Z" fill="#9cb57c"></path><path d="M0 -270.4C36 -260.4 72 -250.4 94.9 -229.1C117.8 -207.9 127.7 -175.4 155.2 -155.2C182.7 -135.1 227.7 -127.3 249.8 -103.5C272 -79.7 271.2 -39.8 270.4 0L0 0Z" fill="#7fac75"></path><path d="M0 -202.8C27 -195.3 54 -187.8 71.2 -171.8C88.4 -155.9 95.8 -131.5 116.4 -116.4C137 -101.3 170.8 -95.5 187.4 -77.6C204 -59.8 203.4 -29.9 202.8 0L0 0Z" fill="#5ea371"></path><path d="M0 -135.2C18 -130.2 36 -125.2 47.5 -114.6C58.9 -103.9 63.9 -87.7 77.6 -77.6C91.3 -67.5 113.9 -63.6 124.9 -51.7C136 -39.8 135.6 -19.9 135.2 0L0 0Z" fill="#329972"></path><path d="M0 -67.6C9 -65.1 18 -62.6 23.7 -57.3C29.5 -52 31.9 -43.8 38.8 -38.8C45.7 -33.8 56.9 -31.8 62.5 -25.9C68 -19.9 67.8 -10 67.6 0L0 0Z" fill="#009473"></path></g></svg>