<svg id="visual" viewBox="0 0 900 600" width="900" height="600" xmlns="http://www.w3.org/2000/svg" xmlns:xlink="http://www.w3.org/1999/xlink" version="1.1"><rect x="0" y="0" width="900" height="600" fill="#CCCCCC"></rect><defs><linearGradient id="grad1_0" x1="33.3%" y1="0%" x2="100%" y2="100%"><stop offset="20%" stop-color="#cccccc" stop-opacity="1"></stop><stop offset="80%" stop-color="#cccccc" stop-opacity="1"></stop></linearGradient></defs><defs><linearGradient id="grad2_0" x1="0%" y1="0%" x2="66.7%" y2="100%"><stop offset="20%" stop-color="#cccccc" stop-opacity="1"></stop><stop offset="80%" stop-color="#cccccc" stop-opacity="1"></stop></linearGradient></defs><g transform="translate(900, 0)"><path d="M0 405.6C-47.5 355.1 -95 304.6 -160 277.1C-225 249.6 -307.4 245.2 -351.3 202.8C-395.1 160.5 -400.4 80.2 -405.6 0L0 0Z" fill="#f75b31"></path></g><g transform="translate(0, 600)"><path d="M0 -405.6C37.9 -338.5 75.8 -271.4 142 -246C208.2 -220.5 302.6 -236.9 351.3 -202.8C399.9 -168.8 402.8 -84.4 405.6 0L0 0Z" fill="#f75b31"></path></g></svg>