<svg id="visual" viewBox="0 0 900 600" width="900" height="600" xmlns="http://www.w3.org/2000/svg" xmlns:xlink="http://www.w3.org/1999/xlink" version="1.1"><rect x="0" y="0" width="900" height="600" fill="#eed5b1"></rect><defs><linearGradient id="grad1_0" x1="33.3%" y1="0%" x2="100%" y2="100%"><stop offset="20%" stop-color="#eed5b1" stop-opacity="1"></stop><stop offset="80%" stop-color="#eed5b1" stop-opacity="1"></stop></linearGradient></defs><defs><linearGradient id="grad2_0" x1="0%" y1="0%" x2="66.7%" y2="100%"><stop offset="20%" stop-color="#eed5b1" stop-opacity="1"></stop><stop offset="80%" stop-color="#eed5b1" stop-opacity="1"></stop></linearGradient></defs><g transform="translate(900, 0)"><path d="M0 381C-53 352 -106.1 323 -172 297.9C-237.9 272.9 -316.8 251.8 -351.3 202.8C-385.8 153.8 -375.9 76.9 -366 0L0 0Z" fill="#009473"></path></g><g transform="translate(0, 600)"><path d="M0 -391C56.7 -356.6 113.3 -322.1 167.5 -290.1C221.7 -258.1 273.4 -228.5 312.6 -180.5C351.9 -132.5 378.8 -66.3 405.6 0L0 0Z" fill="#009473"></path></g></svg>